<?xml version="1.0"?>
<svg xmlns="http://www.w3.org/2000/svg" xmlns:xlink="http://www.w3.org/1999/xlink" version="1.1" id="Layer_1" x="0px" y="0px" viewBox="0 0 512 512" style="enable-background:new 0 0 512 512;" xml:space="preserve" width="512px" height="512px" class=""><g><path style="fill:#FFA300" d="M512,256c0,141.389-114.616,256-256,256C114.614,512,0,397.389,0,256C0,114.609,114.614,0,256,0  C397.384,0,512,114.609,512,256z" data-original="#FF8E31" class="" data-old_color="#E28D19"/><path style="fill:#E28D19" d="M509.302,292.982l-115.285-115.29l-5.745-5.742c-9.116-8.279-20.342-14.761-32.917-18.801  l-37.445-37.443c-3.694-3.692-8.814-5.998-14.405-5.998h-65.83h-52.554c-11.231,0-20.408,9.175-20.408,20.406v251.761  c0,5.373,2.084,10.24,5.519,13.901l0.991,0.983l113.6,113.585C400.43,497.377,492.728,407.468,509.302,292.982z" data-original="#ED7425" class="" data-old_color="#FFA300"/><path style="fill:#5D6D7E" d="M303.514,109.716H185.101c-11.205,0-20.396,9.175-20.396,20.406v251.761  c0,11.223,9.19,20.403,20.396,20.403h118.41c11.218,0,20.388-9.18,20.388-20.403V130.122  C323.899,118.892,314.729,109.716,303.514,109.716z" data-original="#34495E" class="" data-old_color="#34495E"/><rect x="176.253" y="153.933" style="fill:#FFFFFF" width="136.09" height="204.109" data-original="#CEE2F2" class="" data-old_color="#CEE2F2"/><polygon style="fill:#F2F9FF;" points="176.253,358.06 176.253,153.938 312.353,153.938 " data-original="#F2F9FF" class=""/><path style="fill:#283A4D;" d="M249.434,131.822c0,2.836-2.284,5.13-5.13,5.13c-2.826,0-5.13-2.294-5.13-5.13  c0-2.834,2.304-5.133,5.13-5.133C247.15,126.689,249.434,128.988,249.434,131.822z" data-original="#283A4D" class=""/><g>
	<path style="fill:#5D6D7E;" d="M246.362,131.814c0,1.137-0.924,2.051-2.058,2.051c-1.126,0-2.053-0.914-2.053-2.051   c0-1.126,0.927-2.058,2.053-2.058C245.437,129.759,246.362,130.688,246.362,131.814z" data-original="#5D6D7E"/>
	<path style="fill:#5D6D7E;" d="M231.683,386.611c-3.087,0-5.594-2.506-5.594-5.604v-1.664c0-3.098,2.506-5.604,5.594-5.604h25.236   c3.087,0,5.596,2.506,5.596,5.604v1.664c0,3.098-2.506,5.604-5.596,5.604H231.683z" data-original="#5D6D7E"/>
</g><path style="fill:#283A4D;" d="M260.923,381.005c0,2.212-1.8,4.009-4.001,4.009h-25.236c-2.202,0-4.001-1.797-4.001-4.009v-1.664  c0-2.197,1.8-4.009,4.001-4.009h25.236c2.202,0,4.001,1.812,4.001,4.009V381.005z" data-original="#283A4D" class=""/><path style="fill:#B8D1E6" d="M412.744,224.814c0,42.163-39.304,76.357-87.764,76.357c-48.479,0-87.78-34.194-87.78-76.357  c0-42.171,39.301-76.362,87.78-76.362C373.44,148.452,412.744,182.646,412.744,224.814z" data-original="#C1D354" class="" data-old_color="#C1D354"/><path style="fill:#F2F9FF;" d="M321.308,264.225c-11.802-0.919-20.628-5.609-26.698-11.912l7.56-10.432  c4.242,4.705,10.89,9.057,19.139,10.327v-22.244c-11.802-2.964-24.179-7.219-24.179-22.113c0-11.686,9.398-20.964,24.179-22.221  v-10.55h9.155v10.657c9.288,1.024,17.078,4.698,23.043,10.427l-7.562,9.974c-4.357-4.352-9.856-6.999-15.48-8.143v19.827  c11.917,3.087,24.873,7.575,24.873,22.909c0,11.694-7.675,22.006-24.873,23.496v10.309h-9.155L321.308,264.225L321.308,264.225z   M321.308,215.421v-17.999c-6.418,0.801-10.429,4.365-10.429,9.4C310.879,211.297,315.241,213.578,321.308,215.421z   M330.463,232.366v19.948c7.923-1.155,11.123-5.842,11.123-10.319C341.586,236.846,336.781,234.322,330.463,232.366z" data-original="#F2F9FF" class=""/><polygon style="fill:#B8D1E6" points="235.057,310.912 276.71,288.276 257.684,269.253 " data-original="#C1D354" class="" data-old_color="#C1D354"/><path style="fill:#F2F9FF" d="M254.566,218.309c-0.404,0-0.822-0.051-1.231-0.151c-2.862-0.678-4.628-3.543-3.95-6.4  c4.657-19.607,20.045-36.695,41.183-45.706c2.706-1.16,5.829,0.1,6.984,2.798c1.149,2.716-0.108,5.829-2.811,6.986  c-18.043,7.693-31.13,22.039-34.998,38.369C259.156,216.658,256.975,218.309,254.566,218.309z" data-original="#DBEBA0" class="active-path" data-old_color="#DBEBA0"/></g> </svg>
